<svg width="724" height="300" viewBox="0 0 724 300" fill="none" xmlns="http://www.w3.org/2000/svg">
<path d="M244.5 187.5C247.1 187.5 249.1 188.7 250.5 191.1C252.1 193.5 252.9 196.8 252.9 201C252.9 208.8 251 215 247.2 219.6C236 233 225.1 242.4 214.5 247.8C204.1 253.2 191.5 255.9 176.7 255.9C166.3 255.9 156.7 254.6 147.9 252C139.1 249.4 128.4 245.5 115.8 240.3C104.4 235.3 93.4 231.2 82.8 228C72.6 246.6 57.3 255.9 36.9 255.9C25.7 255.9 16.8 253.4 10.2 248.4C3.4 243.2 -1.10269e-06 236.6 -1.10269e-06 228.6C-1.10269e-06 218.8 4.7 210.7 14.1 204.3C23.5 197.7 36 194.4 51.6 194.4H55.5L60.9 107.1C62.1 87.1 65.7 70.6 71.7 57.6C77.7 44.6 86 33.5 96.6 24.3C105.8 16.3 116.3 10.3 128.1 6.3C139.9 2.1 152.4 -5.72205e-06 165.6 -5.72205e-06C187.2 -5.72205e-06 203.8 5.59999 215.4 16.8C227 28 232.8 42.6 232.8 60.6C232.8 72.8 230.6 82.7 226.2 90.3C221.8 97.7 215.7 101.4 207.9 101.4C202.3 101.4 197.9 100.1 194.7 97.5C191.5 94.7 189.9 90.8 189.9 85.8C189.9 84 190.3 80.7 191.1 75.9C192.3 70.3 192.9 65.3 192.9 60.9C192.9 52.5 190.4 45.9 185.4 41.1C180.6 36.1 173.2 33.6 163.2 33.6C145.6 33.6 132 39.4 122.4 51C112.8 62.4 106.7 80.4 104.1 105L97.2 173.1C96.2 182.7 94.9 191 93.3 198C106.1 200.2 122.1 203.7 141.3 208.5C152.5 211.3 161.1 213.3 167.1 214.5C173.1 215.7 178.4 216.3 183 216.3C194.6 216.3 204.5 214.4 212.7 210.6C221.1 206.6 229 200.3 236.4 191.7C238.8 188.9 241.5 187.5 244.5 187.5ZM440.655 199.8C443.655 198.6 446.155 198 448.155 198C451.355 198 453.755 199.2 455.355 201.6C456.955 204 457.755 207.1 457.755 210.9C457.755 216.9 456.255 222 453.255 226.2C450.455 230.4 445.555 234.2 438.555 237.6C426.755 243.2 411.455 247.7 392.655 251.1C373.855 254.3 355.355 255.9 337.155 255.9C311.955 255.9 290.855 253.1 273.855 247.5C256.855 241.7 244.155 233.8 235.755 223.8C227.555 213.8 223.455 202.5 223.455 189.9C223.455 172.7 228.955 158.1 239.955 146.1C251.155 133.9 267.555 125.1 289.155 119.7C277.355 116.3 268.255 110.3 261.855 101.7C255.655 93.1 252.555 83.5 252.555 72.9C252.555 58.5 257.055 45.8 266.055 34.8C275.255 23.6 287.555 15 302.955 9C318.355 3 335.255 -5.72205e-06 353.655 -5.72205e-06C378.455 -5.72205e-06 397.055 5.4 409.455 16.2C421.855 26.8 428.055 40.6 428.055 57.6C428.055 69.4 425.855 79 421.455 86.4C417.255 93.6 411.155 97.2 403.155 97.2C397.555 97.2 393.155 96 389.955 93.6C386.755 91 385.155 87.2 385.155 82.2C385.155 78.8 385.655 75.1 386.655 71.1C387.655 64.5 388.155 60 388.155 57.6C388.155 50.4 385.455 44.6 380.055 40.2C374.655 35.6 365.655 33.3 353.055 33.3C336.055 33.3 322.455 36.9 312.255 44.1C302.055 51.3 296.955 61 296.955 73.2C296.955 82.6 300.755 90.4 308.355 96.6C316.155 102.6 328.755 105.9 346.155 106.5C350.555 106.7 353.655 107.7 355.455 109.5C357.255 111.3 358.155 114.3 358.155 118.5C358.155 131.7 352.155 138.4 340.155 138.6C323.555 139 309.755 141.3 298.755 145.5C287.955 149.7 280.055 155.1 275.055 161.7C270.255 168.1 267.855 175 267.855 182.4C267.855 194.8 273.655 204.2 285.255 210.6C296.855 216.8 315.255 219.9 340.455 219.9C357.055 219.9 374.555 218 392.955 214.2C411.555 210.2 427.455 205.4 440.655 199.8ZM489.42 255.9C482.02 255.9 476.72 254.3 473.52 251.1C470.32 247.7 468.72 241.4 468.72 232.2C468.72 226 469.32 218.5 470.52 209.7C471.72 200.9 473.82 187.6 476.82 169.8C477.22 167.4 478.82 157.7 481.62 140.7C484.42 123.5 486.92 105.5 489.12 86.7C491.12 70.7 492.12 58.7 492.12 50.7C492.12 41.7 488.82 37.2 482.22 37.2C477.22 37.2 470.92 39.9 463.32 45.3C455.92 50.5 447.92 58.9 439.32 70.5C436.52 74.3 433.42 76.2 430.02 76.2C427.22 76.2 424.72 74.9 422.52 72.3C420.52 69.5 419.52 66.4 419.52 63C419.52 59.6 420.12 56.4 421.32 53.4C422.52 50.2 424.72 46.4 427.92 42C437.72 28.6 448.62 18.3 460.62 11.1C472.62 3.69999 485.22 -5.72205e-06 498.42 -5.72205e-06C509.42 -5.72205e-06 517.62 3.4 523.02 10.2C528.62 17 531.42 26.9 531.42 39.9C531.42 51.5 529.82 68.3 526.62 90.3C536.62 60.7 549.32 38.3 564.72 23.1C580.12 7.7 598.22 -5.72205e-06 619.02 -5.72205e-06C635.42 -5.72205e-06 647.72 4.69999 655.92 14.1C664.32 23.3 668.52 35.7 668.52 51.3C668.52 60.1 667.22 70.8 664.62 83.4L646.32 169.2C644.32 179.2 643.32 187.8 643.32 195C643.32 203.4 645.22 209.7 649.02 213.9C653.02 218.1 658.52 220.2 665.52 220.2C672.12 220.2 678.52 218 684.72 213.6C691.12 209.2 698.62 201.9 707.22 191.7C709.62 188.9 712.32 187.5 715.32 187.5C717.92 187.5 719.92 188.7 721.32 191.1C722.92 193.5 723.72 196.8 723.72 201C723.72 208.8 721.82 215 718.02 219.6C707.62 232.2 697.32 241.4 687.12 247.2C676.92 253 666.22 255.9 655.02 255.9C638.02 255.9 624.72 250.9 615.12 240.9C605.52 230.7 600.72 217.1 600.72 200.1C600.72 193.5 601.22 186.3 602.22 178.5C603.42 170.7 605.32 160.8 607.92 148.8L619.92 93.9C620.32 92.1 621.02 88.9 622.02 84.3C623.02 79.7 623.82 75.4 624.42 71.4C625.02 67.2 625.32 63.1 625.32 59.1C625.32 52.7 623.52 47.6 619.92 43.8C616.32 40 611.22 38.1 604.62 38.1C592.62 38.1 580.62 44.5 568.62 57.3C556.62 70.1 545.52 90.8 535.32 119.4C525.12 147.8 517.12 184.2 511.32 228.6C509.92 238.8 507.82 245.9 505.02 249.9C502.42 253.9 497.22 255.9 489.42 255.9Z" fill="white"/>
<path d="M12.3 284.4H685.02V299.4H12.3V284.4Z" fill="white"/>
</svg>
